PathFileType	4	(X/Y/Z)	C:/Users/beibeiliu/ov580/test_trc/capture2\sequence.18_training_dense_right.trc
DataRate	CameraRate	NumFrames	NumMarkers	Units	OrigDataRate	OrigDataStartFrame	OrigNumFrames
120	120	10	19	mm	120	200	398
Frame#	Time	ThumbCMC			ThumbMCP			ThumbIP			ThumbTip			IndexMCP			IndexPIP			IndexTip			MiddleMCP			MiddlePIP			MiddleTip			RingMCP			RingPIP			RingTip			PinkyMCP			PinkyPIP			PinkyTip			BackHand1			BackHand2			BackHand3	
		X0	Y0	Z0	X1	Y1	Z1	X2	Y2	Z2	X3	Y3	Z3	X4	Y4	Z4	X5	Y5	Z5	X6	Y6	Z6	X7	Y7	Z7	X8	Y8	Z8	X9	Y9	Z9	X10	Y10	Z10	X11	Y11	Z11	X12	Y12	Z12	X13	Y13	Z13	X14	Y14	Z14	X15	Y15	Z15	X16	Y16	Z16	X17	Y17	Z17	X18	Y18	Z18	
199	1.65833	191.484	74.1538	34.4612	204.695	86.1942	9.23233	222.195	86.4592	-9.08537	234.918	84.7259	-26.4679	234.966	56.0038	-19.8485	221.075	69.2177	-41.5205	193.521	72.1568	-21.9483	224.552	40.6933	-27.6699	202.379	55.825	-41.9605	182.148	56.5161	-7.92066	209.041	27.3631	-27.7724	186.065	47.1158	-34.4854	176.679	48.2347	-1.41324	196.083	12.8994	-23.1279	173.17	35.9989	-27.4838	170.271	41.4493	2.43857	204.64	12.3053	25.396	183.466	20.3215	52.6419	208.291	47.9302	47.0858	
200	1.66667	188.493	77.5251	34.9027	198.343	87.9938	10.9339	220.2	90.7436	-9.96283	233.563	89.4776	-27.3165	234.846	61.0491	-17.815	216.831	71.4396	-42.0338	192.574	75.188	-20.7794	221.505	42.9614	-29.5114	198.51	56.6707	-43.0344	180.004	59.7669	-9.73125	206.994	29.8378	-30.4282	181.194	47.4592	-34.6589	175.315	49.0242	-0.13722	193.583	15.6017	-26.1813	172.821	40.2499	-27.3806	169.192	43.8562	3.6278	205.189	18.7793	26.6787	180.174	20.308	52.316	206.217	46.7304	44.3943	
201	1.675	186.739	82.788	36.1593	200.883	91.7804	8.42206	216.438	94.959	-8.23928	231.937	91.9249	-28.3338	233.344	63.8403	-18.4982	214.343	73.3377	-43.4107	191.409	78.9949	-21.2587	219.199	44.9934	-29.6694	197.615	64.1222	-43.3115	179.371	64.8057	-7.46013	204.949	31.1643	-29.8443	179.854	48.2848	-38.0691	174.845	55.7293	-3.64899	192.263	19.4721	-25.6194	170.31	40.2882	-31.1086	168.765	45.0929	2.38485	200.734	17.1564	23.2194	183.098	24.9089	49.5413	203.158	53.1548	43.9945	
202	1.68333	187.215	83.8625	32.8633	197.23	93.9629	8.42093	217.599	97.5465	-11.4209	230.594	90.2593	-29.6893	232.942	68.2429	-23.123	212.762	77.1277	-43.7939	189.066	80.6791	-20.6461	219.115	51.348	-27.6779	192.942	65.1678	-43.8408	178.403	70.3765	-12.0141	205.181	38.7278	-32.0636	178.145	54.5289	-37.0009	171.704	57.5016	-6.04689	190.1	22.9975	-28.9408	170.747	45.6054	-31.2694	165.155	48.0884	1.69388	199.619	20.9528	25.3858	179.33	25.3045	46.1738	202.404	53.5211	41.9433	
203	1.69167	188.213	89.7579	32.47	197.232	99.5329	8.65648	215.571	98.5811	-12.0653	230.277	95.1084	-31.0534	229.717	70.6012	-24.8562	212.259	82.4	-45.2759	187.563	88.0785	-18.9641	215.806	54.2929	-33.6278	191.507	68.9612	-44.0413	175.28	69.8827	-10.1869	200.807	39.4909	-33.7154	175.564	59.7474	-36.8092	170.218	58.8669	-3.58987	188.583	30.226	-31.2039	168.357	50.2808	-29.663	163.7	52.4285	-0.4774	198.456	24.9427	22.8921	175.216	27.2833	48.7401	203.8	56.1137	41.0763	
204	1.7	182.593	91.9063	32.7347	194.814	99.0496	6.78256	214.398	103.467	-12.0779	226.547	99.9073	-30.1267	226.505	70.475	-27.3321	208.152	86.176	-45.8482	184.065	88.2925	-19.5776	211.472	56.01	-34.3355	186.821	70.5926	-45.2808	173.658	77.2932	-10.8386	197.564	46.4037	-36.9792	170.152	62.5497	-37.1777	169.743	66.1172	-3.99033	184.649	33.0277	-30.3416	161.325	52.5663	-30.6053	161.772	56.8596	-0.540312	192.941	29.3484	20.4868	174.872	32.6612	44.9414	199.327	59.5715	39.6676	
205	1.70833	182.428	95.3548	31.3487	193.466	107.625	8.8094	211.361	108.023	-11.5748	224.7	101.115	-30.9791	222.575	75.3068	-28.3776	203.812	90.6214	-45.9029	182.286	94.5009	-25.0706	207.993	59.0896	-32.3402	185.025	75.7001	-46.0363	171.343	79.0376	-8.41738	192.35	48.6441	-38.9983	170.833	68.6976	-39.6809	167.649	71.3552	-6.63661	181.175	37.7454	-28.7443	160.103	59.4848	-32.4913	160.754	62.2078	0.851185	190.371	29.8721	18.8701	172.771	39.3829	46.5947	197.799	60.9363	38.5024	
206	1.71667	183.438	98.8208	32.2303	194.316	109.151	6.64711	212.796	111.736	-14.0705	224.17	106.771	-32.0767	219.721	78.2159	-28.9417	203.017	94.6804	-46.0965	180.348	98.6009	-20.9622	205.633	63.5961	-33.2221	181.357	81.4061	-47.3657	170.101	86.1464	-10.3649	188.81	52.6679	-36.3197	164.492	75.6486	-37.1432	164.678	72.9279	-2.73347	175.431	43.6782	-31.2009	158.095	68.8495	-30.9209	157.783	67.9491	-0.531312	188.019	38.0263	18.0315	169.12	41.0306	41.7657	194.262	64.053	35.7751	
207	1.725	181.129	103.547	33.9361	192.87	110.378	6.87804	212.759	115.88	-12.7017	222.682	111.566	-31.5906	217.902	83.6958	-29.5487	198.831	98.7515	-46.9889	180.723	104.087	-21.5184	200.422	71.5195	-38.7613	178.907	88.7037	-47.1007	170.406	92.4966	-8.70826	183.524	58.9803	-36.405	161.259	83.5536	-35.7113	161.363	80.8194	-5.2761	169.674	50.2651	-31.1583	150.19	74.6552	-30.3507	155.996	74.0664	-0.166198	182.876	41.1906	16.9539	163.296	44.6601	44.8038	191.959	67.3099	38.3912	
208	1.73333	182.956	107.399	33.4521	192.853	117.188	9.20472	211.654	116.523	-12.7299	224.902	112.203	-33.7519	215.426	87.1219	-28.9162	200.481	105.238	-47.9174	180.287	110.089	-15.8241	197.271	77.2882	-39.2623	174.414	95.7389	-47.1585	166.716	96.8733	-10.152	180.026	67.6179	-38.018	161.913	90.3403	-39.596	159.402	87.4377	-4.72327	163.528	60.9501	-35.9918	146.175	81.7572	-32.7711	152.507	81.3693	-0.694583	177.564	48.0541	14.5394	163.555	50.7072	41.1002	191.063	69.5266	32.6572	
